<?xml version="1.0" encoding="utf-8"?>
<!-- Generator: Adobe Illustrator 24.0.1, SVG Export Plug-In . SVG Version: 6.00 Build 0)  -->
<svg version="1.1" id="Layer_1" xmlns="http://www.w3.org/2000/svg" xmlns:xlink="http://www.w3.org/1999/xlink" x="0px" y="0px"
	 width="220px" height="220px" viewBox="0 0 220 220" style="enable-background:new 0 0 220 220;" xml:space="preserve">
<style type="text/css">
	.st0{fill:url(#SVGID_1_);}
	.st1{fill:url(#SVGID_2_);}
</style>
<linearGradient id="SVGID_1_" gradientUnits="userSpaceOnUse" x1="110" y1="220" x2="110" y2="-9.094947e-13">
	<stop  offset="0" style="stop-color:#181818"/>
	<stop  offset="1" style="stop-color:#444444"/>
</linearGradient>
<rect x="0" class="st0" width="220" height="220"/>
<linearGradient id="SVGID_2_" gradientUnits="userSpaceOnUse" x1="96.999" y1="163.5" x2="96.999" y2="56.5">
	<stop  offset="0" style="stop-color:#000000"/>
	<stop  offset="1" style="stop-color:#222222"/>
</linearGradient>
<path class="st1" d="M146.4,80.5V60.6c0-1.3-0.6-2.4-1.5-3.2c-1-0.8-2.3-1.1-3.5-0.8L79,70.7c-1.9,0.4-3.2,2.1-3.2,4v20c0,0,0,0,0,0
	v35.3c-2.9-1.9-6.3-3-10-3c-10.1,0-18.2,8.2-18.2,18.2c0,10,8.2,18.2,18.2,18.2s18.2-8.2,18.2-18.2V98l54.1-12.2v30.2
	c-2.9-1.9-6.3-3-10-3c-10.1,0-18.2,8.2-18.2,18.2c0,10,8.2,18.2,18.2,18.2c10.1,0,18.2-8.2,18.2-18.2V80.5
	C146.4,80.5,146.4,80.5,146.4,80.5z M65.8,155.3c-5.5,0-10-4.5-10-10c0-5.5,4.5-10,10-10s10,4.5,10,10
	C75.8,150.8,71.3,155.3,65.8,155.3z M84.1,89.5V78l54.1-12.2v11.5L84.1,89.5z M128.2,141.2c-5.5,0-10-4.5-10-10c0-5.5,4.5-10,10-10
	s10,4.5,10,10C138.2,136.7,133.7,141.2,128.2,141.2z"/>
</svg>
